<?xml version="1.0" encoding="UTF-8"?>
<svg id="Capa_1" xmlns="http://www.w3.org/2000/svg" version="1.1" viewBox="0 0 765.39 397.32">
  <!-- Generator: Adobe Illustrator 29.5.1, SVG Export Plug-In . SVG Version: 2.1.0 Build 141)  -->
  <path d="M394.21,193.46l5.74-2.17c1.46-3.01,2.79-6.94,6.98-6.51,1.01.11,1.77.96,2.31.92,1.05-.08,5.85-5.06,6.76-6.2,6.26-7.83,8.11-17.14,6.5-26.99,3.89-2.86,3.11,6.8,2.92,9.06-.68,7.89-5.81,16.33-11.53,21.58-.86.79-3.76,2.45-4.09,3.11-.42.86-.21,2.21-.56,3.28-.66,2-2.45,4.11-4.59,4.57-.95.21-2.2-.26-2.28-.18s-.09,1.39-.54,2.1c-2.56,4.04-10.41,7.92-14.82,9.65-3.93,1.54-7.37,1.05-9.99,4.88-4.64,6.8-6.75,13.49-13.28,19.83-2.15,2.09-12.02,9.53-13.59,3.97-1.48-5.22,8.69-11.98,11.91-15-20.24,8.95-42.43,12.2-64.39,8.48-5.76-.98-21.23-4.69-23.54-10.53-2.76-6.97,5.68-22.08,9.51-28.14,4.59-7.24,16.62-22.89,25.43-23.98,6.88-.85,15.89,4.46,21.47,8.2l18.56,14.3c-12.88-12.45-27.3-26.96-33.12-44.36-18.28-54.69,55.06-76.39,73.43-117.78,8.79,8.76,15.29,21.26,19.68,32.85,16.23,42.85,13.8,98.02-14.88,135.05ZM363.5,199.7l-18.94-12.96c-7.48-4.82-24.35-15.49-33.08-14.34-10.34,1.36-24.44,23.34-27.29,32.68-3.42,11.21.39,14.13,10.59,17.51,31.45,10.39,79.95-1.1,97.11-31.2,13.67-23.99,20.3-58.08,17.13-85.41-2.04-17.58-9.29-35-20.33-48.75-24.31,27.58-84.2,42.59-66.34,90.3,7.69,20.55,25.84,37.19,41.15,52.17Z"/>
  <path d="M430.58,197.93c68.52-5.35,115.85,64.54,85.36,126.12-31.83,64.29-123.56,63.4-154.3-1.36-25.25-53.2,9.23-120.09,68.94-124.76ZM436.34,205.12c-61.43,4.34-95.82,74.02-61.63,125.61,36.29,54.75,120.14,45.3,143.31-16.13,20.91-55.43-22.84-113.64-81.68-109.48Z"/>
  <path d="M540.09,363.77c2.05-2.18,2.68-4.96,2.9-7.89,2.23-29.7-1.73-62.16,0-92.15-.29-2.84-1.17-5.62-2.9-7.89,14.78.59,30.18-.8,44.89-.03,23.6,1.24,39.97,16.13,35.6,40.91-2.91,16.49-16.39,23.66-32.02,24.84,7.15,10.57,12.98,22.83,20.25,33.25,2.33,3.35,4.91,6.37,8.07,8.97h-14.88l-.14-3.94c-6.57-13.11-14.86-25.37-22.66-37.79h-26.63v36.7c0,.95,1.91,3.98,2.4,5.04h-14.88ZM552.56,319.16c19.27-.88,51.19,5.51,57.64-19.37,4.23-16.29-.68-32.54-17.56-38.22-1.2-.4-6.35-1.9-7.21-1.9h-32.39c.26.61-.48,1.42-.48,1.68v57.81Z"/>
  <path d="M60.71,255.83l40.55,94.99,40.55-94.99h11.04c-2.17,2.25-2.69,5.35-2.9,8.37-2.05,29.53,1.59,61.41,0,91.19.32,3,.99,5.97,2.9,8.38h-14.88c2.51-3.37,2.26-7.29,2.9-11.25l-.02-88.05-42.47,98.83-43.9-98.83v91.87c0,2.1,1.58,5.7,2.88,7.44h-7.2l1.46-3.1c2.18-31.9.31-64.36.95-96.46l-1.03-4.25-2.83-4.13h12Z"/>
  <path d="M246.89,255.83l40.31,94.99,40.78-94.99h11.04c-1.93,2.32-2.66,4.9-2.9,7.9-2.31,29.3,1.78,61.58,0,91.19.22,3.16.92,6.32,2.9,8.85h-14.88c.89-1.52,1.76-3.03,2.18-4.77.15-.6.69-3.72.69-4.1v-90.43l-42.94,98.83-43.43-98.83v91.39c0,.62.92,4.2,1.21,5.02.39,1.11,1.07,1.92,1.67,2.89h-7.2l1.46-3.1c2.18-31.9.31-64.36.95-96.46-.09-3.29-1.86-5.95-3.86-8.38h12Z"/>
  <path d="M226.26,255.83l2.87,13.91c-14.96-13.99-38.39-9.76-57.26-10.57-.34.08-1.28,3.29-1.28,3.62v38.14h13.68c1.29,0,6.41-1.66,7.76-2.31,2.34-1.13,4.23-2.96,5.91-4.88v17.27c-1.44-1.38-2.22-2.78-3.98-3.93-1.45-.95-7.2-3.26-8.73-3.26h-14.64v52.53c0,.89.78,4.58,2.16,4.56,17.33-.38,36.35,1.6,52.02-7l4.36-4.03-2.87,13.91h-67.66c2.1-2.81,2.45-5.94,2.9-9.34-1.42-29.1,1.82-59.89,0-88.79-.22-3.44-.68-7.05-2.9-9.81h67.66Z"/>
  <path d="M716.67,363.77h-14.88c1.06-3.02.33-5.51-.47-8.4-2.15-7.73-6.72-15.67-9.08-23.44l-48.46-.24c-2.29,8.17-7.19,16.39-9.3,24.52-.69,2.65-1.37,4.81-.35,7.56h-7.2c2.92-2.85,4.63-6.09,6.32-9.75,13.77-29.76,24.5-63.78,36.99-94.47.43-1.05.74-2.68,1.79-3.24l38.31,98.19c1.45,3.6,3.64,6.53,6.32,9.27ZM691.24,329.23l-23.27-59.01-22.79,59.01h46.07Z"/>
  <path d="M412.45,187.7l9.6-4.06c5.68-3.2,11.45-9.35,13.79-15.48.66-1.73,1.62-9.29,3.98-7.58,1.72,1.25-1.73,8.67-2.65,10.35-4.73,8.59-14.97,15.69-24.72,16.78Z"/>
  <path d="M201.79,237.12c.22.93-.34.92-.81,1.35-1.88,1.72-6.26,6.28-8.04,7.31-.66.38-3.53,1.13-3.13-.25l4.31-8.41h7.68Z"/>
  <path d="M433.94,216.64c49.29-4.16,89.44,38.69,76.15,87.65-15.18,55.92-90.29,69.37-125.2,23.47-32.81-43.14-4.44-106.6,49.05-111.11ZM433.46,221.43c-50.74,3.59-78.04,61.67-47.61,102.96,31.07,42.16,98.71,31.18,114.53-18.78,13.94-44.01-21.13-87.42-66.93-84.18Z"/>
  <path d="M482.5,282.22c-.26-21.58-19.26-37.84-40.34-38.11-.72-.5-.72-5.32,0-5.82,20.88-1,39.48,15.95,43.09,36.14.55,3.1,2.09,8.58-2.75,7.79Z"/>
</svg>